PathFileType	4	(X/Y/Z)	c:/Users/goper/Files/vsCode/490R/osim_files/C10/C10_SSWS_05.trc
DataRate	CameraRate	NumFrames	NumMarkers	Units                	OrigDataRate	OrigDataStartFrame	OrigNumFrames
250.00	250.00	5	36	mm	250.0	1688	2250
                Frame#	Time	LPSIS			LASIS			LTH1			LTH2			LTH3			LTH4			LLFE			LMFE			LSH1			LSH2			LSH3			LSH4			LLMAL			LMMAL			LCAL			LMTP5			LTOE			LMTP1			RPSIS			RASIS			RTH1			RTH2			RTH3			RTH4			RLFE			RMFE			RSH1			RSH2			RSH3			RSH4			RLMAL			RMMAL			RCAL			RMTP1			RTOE			RMTP5		
		X1	Y1	Z1	X2	Y2	Z2	X3	Y3	Z3	X4	Y4	Z4	X5	Y5	Z5	X6	Y6	Z6	X7	Y7	Z7	X8	Y8	Z8	X9	Y9	Z9	X10	Y10	Z10	X11	Y11	Z11	X12	Y12	Z12	X13	Y13	Z13	X14	Y14	Z14	X15	Y15	Z15	X16	Y16	Z16	X17	Y17	Z17	X18	Y18	Z18	X19	Y19	Z19	X20	Y20	Z20	X21	Y21	Z21	X22	Y22	Z22	X23	Y23	Z23	X24	Y24	Z24	X25	Y25	Z25	X26	Y26	Z26	X27	Y27	Z27	X28	Y28	Z28	X29	Y29	Z29	X30	Y30	Z30	X31	Y31	Z31	X32	Y32	Z32	X33	Y33	Z33	X34	Y34	Z34	X35	Y35	Z35	X36	Y36	Z36

1688	6.74800	0.00000	0.00000	0.00000	-3362.07715	984.40979	434.65387	-3260.27539	767.29773	482.33057	-3254.36426	720.43164	476.49155	0.00000	0.00000	0.00000	0.00000	0.00000	0.00000	-3238.56152	504.90140	406.19427	-3190.69556	470.95236	288.30310	0.00000	0.00000	0.00000	-3153.84497	356.45972	404.90469	0.00000	0.00000	0.00000	-3106.10083	373.90292	420.80499	-3020.70044	108.40707	366.06461	0.00000	0.00000	0.00000	-2941.14404	68.79131	330.52515	0.00000	0.00000	0.00000	-3218.56079	901.98743	90.30088	0.00000	0.00000	0.00000	-3199.33081	990.19794	210.04163	0.00000	0.00000	0.00000	0.00000	0.00000	0.00000	-3145.77002	436.48560	416.15378	-3183.72681	393.70984	382.41907	0.00000	0.00000	0.00000	0.00000	0.00000	0.00000	0.00000	0.00000	0.00000	-3489.43530	369.11514	115.27494	-3505.57935	332.54922	114.61401	0.00000	0.00000	0.00000	0.00000	0.00000	0.00000	-3635.06812	100.11378	154.86600	-3648.87012	120.62310	234.85295	0.00000	0.00000	0.00000	0.00000	0.00000	0.00000	-3801.09766	146.73410	181.68694	-3763.30005	105.42769	122.07665
1689	6.75200	0.00000	0.00000	0.00000	-3368.08643	983.78534	434.12335	-3265.24585	767.05835	481.96762	-3260.06812	720.10382	475.98831	0.00000	0.00000	0.00000	0.00000	0.00000	0.00000	-3243.34619	504.82080	406.09369	-3194.88525	470.57346	288.14233	0.00000	0.00000	0.00000	-3157.18750	356.54568	404.89905	0.00000	0.00000	0.00000	0.00000	0.00000	0.00000	-3021.68872	109.57486	366.47913	0.00000	0.00000	0.00000	-2941.68896	70.71557	330.91275	0.00000	0.00000	0.00000	-3224.83179	901.53809	89.84045	0.00000	0.00000	0.00000	-3217.21533	986.97821	211.91214	0.00000	0.00000	0.00000	0.00000	0.00000	0.00000	-3149.96240	436.89520	416.10999	0.00000	0.00000	0.00000	-3166.95093	391.30966	401.14545	0.00000	0.00000	0.00000	0.00000	0.00000	0.00000	-3495.65454	368.41031	115.56828	-3510.93433	331.79495	115.16042	0.00000	0.00000	0.00000	0.00000	0.00000	0.00000	-3637.09741	98.73912	155.80502	-3651.38037	118.66565	235.89253	0.00000	0.00000	0.00000	0.00000	0.00000	0.00000	-3803.35938	143.12148	183.30553	-3765.67993	102.51833	123.47337
1690	6.75600	0.00000	0.00000	0.00000	-3374.12573	983.14380	433.61020	-3270.45166	766.75018	481.52969	-3265.53516	719.54968	475.49158	0.00000	0.00000	0.00000	0.00000	0.00000	0.00000	-3248.32397	504.68979	405.99811	-3199.23779	470.22128	287.99194	0.00000	0.00000	0.00000	-3160.48926	356.58020	404.86230	0.00000	0.00000	0.00000	0.00000	0.00000	0.00000	-3022.64478	110.75349	366.86472	0.00000	0.00000	0.00000	-2942.24780	72.68035	331.28882	0.00000	0.00000	0.00000	-3231.17944	901.11450	89.31268	0.00000	0.00000	0.00000	0.00000	0.00000	0.00000	0.00000	0.00000	0.00000	0.00000	0.00000	0.00000	-3154.46216	437.42136	416.06958	0.00000	0.00000	0.00000	-3170.80322	391.13083	400.99789	0.00000	0.00000	0.00000	0.00000	0.00000	0.00000	-3501.76196	367.68063	115.87006	0.00000	0.00000	0.00000	0.00000	0.00000	0.00000	0.00000	0.00000	0.00000	-3638.87646	97.45457	156.88475	-3653.47974	116.38883	236.95512	0.00000	0.00000	0.00000	0.00000	0.00000	0.00000	-3805.81177	139.01501	185.22055	-3767.70337	99.61850	124.76134
1691	6.76000	0.00000	0.00000	0.00000	-3380.23853	982.47070	433.18640	-3283.92285	763.76837	480.52963	-3271.22437	719.05109	475.00757	0.00000	0.00000	0.00000	0.00000	0.00000	0.00000	-3253.44141	504.60419	405.90576	-3203.75537	469.85733	287.81830	0.00000	0.00000	0.00000	-3163.97925	356.63751	404.81470	0.00000	0.00000	0.00000	0.00000	0.00000	0.00000	-3023.73022	111.87934	367.26743	0.00000	0.00000	0.00000	-2942.94971	74.61921	331.72012	0.00000	0.00000	0.00000	-3237.58862	900.68903	88.80152	0.00000	0.00000	0.00000	-3216.45239	988.17865	208.81468	0.00000	0.00000	0.00000	0.00000	0.00000	0.00000	-3158.84937	437.83182	416.04358	0.00000	0.00000	0.00000	-3168.94214	385.67349	400.76993	0.00000	0.00000	0.00000	0.00000	0.00000	0.00000	-3507.65845	366.77963	116.27753	0.00000	0.00000	0.00000	0.00000	0.00000	0.00000	0.00000	0.00000	0.00000	-3640.26367	95.87757	157.79126	-3655.17529	113.97702	237.91238	0.00000	0.00000	0.00000	0.00000	0.00000	0.00000	-3808.38989	134.93243	186.99353	-3769.78638	96.79635	126.24750
1692	6.76400	0.00000	0.00000	0.00000	-3386.31982	981.83655	432.68088	-3289.54370	763.35101	480.16495	-3286.51367	715.31067	475.05997	0.00000	0.00000	0.00000	0.00000	0.00000	0.00000	-3258.66748	504.51718	405.82187	-3208.16357	469.40256	287.63797	0.00000	0.00000	0.00000	-3167.56250	356.74905	404.82617	0.00000	0.00000	0.00000	0.00000	0.00000	0.00000	-3024.82324	113.11899	367.69638	0.00000	0.00000	0.00000	-2943.61572	76.69730	332.10834	0.00000	0.00000	0.00000	-3244.06885	900.29144	88.24165	0.00000	0.00000	0.00000	-3222.51660	987.46680	208.49315	0.00000	0.00000	0.00000	0.00000	0.00000	0.00000	-3163.56396	438.38876	415.97031	0.00000	0.00000	0.00000	-3171.14551	384.94089	400.72958	0.00000	0.00000	0.00000	0.00000	0.00000	0.00000	-3513.48389	365.96948	116.67517	0.00000	0.00000	0.00000	0.00000	0.00000	0.00000	0.00000	0.00000	0.00000	-3641.58057	94.19546	158.49330	-3656.64600	111.62830	238.77037	0.00000	0.00000	0.00000	0.00000	0.00000	0.00000	-3810.53662	130.87939	188.75883	-3771.73779	93.79451	127.54800
